<?xml version="1.0" encoding="UTF-8"?><svg id="Figura" xmlns="http://www.w3.org/2000/svg" viewBox="0 0 373.54 216.02"><defs><style>.cls-1{fill:#92cec1;}.cls-1,.cls-2,.cls-3,.cls-4,.cls-5,.cls-6,.cls-7,.cls-8{stroke:#1d1d1b;stroke-miterlimit:10;stroke-width:.4px;}.cls-2{fill:#ffe1a6;}.cls-3{fill:none;}.cls-4{fill:#a9cbed;}.cls-5{fill:#a5d2ac;}.cls-6{fill:#f7c1c6;}.cls-7{fill:#f4ef98;}.cls-8{fill:#d8a3ca;}.cls-9{fill:#1d1d1b;stroke-width:0px;}</style></defs><rect class="cls-4" x="141.61" y=".2" width="78.52" height="24.3" rx="4.37" ry="4.37"/><rect class="cls-6" x="141.61" y="39.01" width="78.52" height="24.3" rx="4.37" ry="4.37"/><rect class="cls-7" x="47.98" y="76.94" width="78.52" height="24.3" rx="4.37" ry="4.37"/><rect class="cls-7" x=".2" y="116.13" width="48.81" height="19.63" rx="4.37" ry="4.37"/><rect class="cls-7" x="64.2" y="116.13" width="48.81" height="19.63" rx="4.37" ry="4.37"/><rect class="cls-7" x="123.72" y="116.13" width="48.81" height="19.63" rx="4.37" ry="4.37"/><rect class="cls-1" x="193.05" y="116.13" width="48.81" height="19.63" rx="4.37" ry="4.37"/><rect class="cls-1" x="175.05" y="146.57" width="22.18" height="18.07" rx="4.37" ry="4.37"/><rect class="cls-1" x="209.94" y="146.57" width="22.18" height="18.07" rx="4.37" ry="4.37"/><rect class="cls-2" x="238.61" y="175.9" width="22.18" height="18.07" rx="4.37" ry="4.37"/><rect class="cls-2" x="267.72" y="175.9" width="22.18" height="18.07" rx="4.37" ry="4.37"/><rect class="cls-2" x="303.28" y="175.9" width="22.18" height="18.07" rx="4.37" ry="4.37"/><rect class="cls-2" x="335.05" y="175.9" width="22.18" height="18.07" rx="4.37" ry="4.37"/><rect class="cls-2" x="257.79" y="116.13" width="48.81" height="19.63" rx="4.37" ry="4.37"/><rect class="cls-2" x="241.87" y="145.01" width="46.48" height="19.63" rx="4.37" ry="4.37"/><rect class="cls-2" x="298.22" y="145.01" width="46.48" height="19.63" rx="4.37" ry="4.37"/><rect class="cls-8" x="317.79" y="116.13" width="48.81" height="19.63" rx="4.37" ry="4.37"/><rect class="cls-5" x="242.94" y="76.94" width="78.52" height="24.3" rx="4.37" ry="4.37"/><line class="cls-3" x1="179.68" y1="24.5" x2="179.68" y2="39.01"/><line class="cls-3" x1="159.46" y1="63.31" x2="87.24" y2="76.94"/><line class="cls-3" x1="64.2" y1="101.24" x2="24.61" y2="116.13"/><line class="cls-3" x1="112.13" y1="101.24" x2="148.13" y2="116.13"/><line class="cls-3" x1="87.24" y1="101.24" x2="87.24" y2="116.13"/><line class="cls-3" x1="203.44" y1="63.31" x2="282.2" y2="76.94"/><line class="cls-3" x1="255.24" y1="101.24" x2="217.46" y2="116.13"/><line class="cls-3" x1="304.79" y1="101.24" x2="342.2" y2="116.13"/><line class="cls-3" x1="147.13" y1="135.76" x2="147.13" y2="145.01"/><line class="cls-3" x1="220.13" y1="135.76" x2="221.03" y2="146.57"/><line class="cls-3" x1="282.2" y1="101.24" x2="282.2" y2="116.13"/><line class="cls-3" x1="273.24" y1="135.76" x2="260.79" y2="145.01"/><line class="cls-3" x1="293.01" y1="135.76" x2="321.46" y2="145.01"/><line class="cls-3" x1="253.9" y1="164.64" x2="249.7" y2="175.9"/><line class="cls-3" x1="273.24" y1="164.64" x2="278.81" y2="175.9"/><line class="cls-3" x1="317.79" y1="164.64" x2="314.37" y2="175.9"/><line class="cls-3" x1="333.24" y1="164.64" x2="346.15" y2="175.9"/><line class="cls-3" x1="249.7" y1="193.98" x2="249.7" y2="207.31"/><line class="cls-3" x1="278.81" y1="193.98" x2="278.81" y2="207.31"/><line class="cls-3" x1="314.37" y1="193.98" x2="314.37" y2="207.31"/><line class="cls-3" x1="346.15" y1="193.98" x2="346.15" y2="207.31"/><line class="cls-3" x1="186.15" y1="164.64" x2="186.15" y2="173.31"/><line class="cls-3" x1="221.03" y1="164.64" x2="221.03" y2="173.31"/><path class="cls-9" d="m62.95,19.16v-7.1h2.41c.75,0,1.38.16,1.89.48.5.32.88.74,1.13,1.28.25.54.38,1.13.38,1.79,0,.72-.14,1.35-.42,1.88-.28.53-.67.95-1.18,1.24-.51.29-1.11.44-1.81.44h-2.41Zm5.11-3.56c0-.57-.1-1.07-.31-1.51s-.52-.79-.92-1.04-.89-.38-1.47-.38h-1.71v5.86h1.71c.59,0,1.08-.13,1.48-.39.4-.26.7-.61.91-1.06s.31-.94.31-1.5Z"/><path class="cls-9" d="m72.96,19.21c-.5,0-.95-.1-1.36-.3-.41-.2-.76-.47-1.05-.81s-.52-.73-.68-1.16c-.16-.43-.24-.87-.24-1.32s.08-.93.25-1.35c.17-.43.4-.81.71-1.15.3-.34.66-.6,1.06-.8s.85-.29,1.32-.29c.5,0,.95.1,1.36.31.41.21.75.48,1.04.83s.52.73.67,1.16c.16.43.24.86.24,1.31,0,.47-.08.92-.25,1.35-.17.43-.4.81-.7,1.15-.3.34-.65.6-1.06.79-.41.19-.85.29-1.32.29Zm-2.63-3.6c0,.39.06.76.19,1.11.13.36.31.67.54.95.23.28.51.5.83.66.32.16.68.25,1.06.25.41,0,.77-.08,1.1-.25.32-.17.6-.4.83-.68.23-.28.41-.6.53-.96.12-.35.18-.71.18-1.08,0-.39-.06-.76-.19-1.11-.13-.35-.31-.67-.54-.95-.24-.28-.52-.5-.83-.66s-.67-.24-1.06-.24-.76.08-1.08.25c-.32.17-.6.39-.83.67s-.41.6-.53.96c-.12.35-.19.71-.19,1.08Z"/><path class="cls-9" d="m83.9,19.16v-5.78l-2.57,4.49h-.44l-2.58-4.49v5.78h-.7v-7.1h.72l2.77,4.86,2.79-4.86h.71v7.1h-.7Z"/><path class="cls-9" d="m86.14,14.95v-.98h.58v.98h-.58Zm0,4.21v-.98h.58v.98h-.58Z"/><path class="cls-9" d="m34.65,31.16v-7.1h2.41c.75,0,1.38.16,1.89.48.5.32.88.74,1.13,1.28.25.54.38,1.13.38,1.79,0,.72-.14,1.35-.42,1.88-.28.53-.67.95-1.18,1.24-.51.29-1.11.44-1.81.44h-2.41Zm5.11-3.56c0-.57-.1-1.07-.31-1.51s-.52-.79-.92-1.04-.89-.38-1.47-.38h-1.71v5.86h1.71c.59,0,1.08-.13,1.48-.39.4-.26.7-.61.91-1.06s.31-.94.31-1.5Z"/><path class="cls-9" d="m43.88,31.26c-.37,0-.72-.07-1.04-.21-.32-.14-.59-.34-.82-.59-.23-.25-.41-.53-.54-.85-.13-.32-.19-.66-.19-1.02s.06-.72.19-1.04c.13-.32.31-.61.54-.85s.51-.44.82-.59c.32-.14.66-.21,1.04-.21s.72.07,1.03.21c.31.14.59.34.82.59s.41.53.54.85c.13.32.19.67.19,1.04s-.06.7-.19,1.02c-.13.32-.31.61-.54.85-.23.25-.5.44-.82.59-.32.14-.67.21-1.04.21Zm-1.89-2.67c0,.38.08.73.25,1.05s.4.56.69.74.6.27.95.27.66-.09.95-.28c.29-.19.52-.44.69-.76.17-.32.26-.67.26-1.05s-.09-.73-.26-1.05-.4-.57-.69-.75c-.29-.19-.6-.28-.95-.28s-.66.1-.95.29-.51.44-.69.76-.26.67-.26,1.06Z"/><path class="cls-9" d="m49.87,31.26c-.38,0-.73-.07-1.04-.21-.32-.14-.59-.34-.83-.59-.24-.25-.42-.54-.55-.87-.13-.32-.19-.67-.19-1.03,0-.49.11-.94.33-1.34.22-.4.53-.73.92-.96.39-.24.85-.36,1.36-.36.49,0,.92.11,1.29.33.37.22.65.52.83.91l-.66.21c-.15-.27-.35-.48-.61-.62-.26-.15-.56-.23-.88-.23-.35,0-.66.09-.95.27s-.52.42-.69.73c-.17.31-.25.67-.25,1.06s.09.74.26,1.06.4.57.69.76c.29.19.6.28.95.28.23,0,.44-.04.65-.12.21-.08.39-.19.55-.32s.26-.29.31-.45l.67.2c-.09.25-.25.47-.46.67-.22.2-.47.35-.76.46s-.6.17-.94.17Z"/><path class="cls-9" d="m53.05,29.02v-3.05h.68v2.93c0,.59.1,1.03.31,1.32.2.29.5.44.9.44.27,0,.53-.06.78-.17.25-.12.47-.28.66-.5.19-.22.34-.47.44-.75v-3.27h.68v4.37c0,.09.02.16.06.2s.1.07.18.07v.54c-.08,0-.14.01-.19.02-.05,0-.09,0-.13,0-.13-.01-.25-.07-.34-.16-.1-.09-.15-.21-.16-.34l-.02-.7c-.23.4-.53.71-.92.94-.39.23-.81.34-1.27.34-.55,0-.96-.19-1.24-.57-.28-.38-.42-.94-.42-1.67Z"/><path class="cls-9" d="m66.79,31.16h-.68v-2.89c0-.6-.1-1.05-.29-1.33s-.48-.43-.86-.43-.75.14-1.05.42c-.31.28-.53.64-.66,1.07v3.16h-.68v-2.89c0-.61-.09-1.05-.28-1.34-.19-.28-.47-.42-.86-.42s-.74.14-1.05.41-.53.63-.66,1.07v3.17h-.68v-5.19h.62v1.18c.22-.4.5-.72.84-.93s.73-.33,1.15-.33.78.12,1.05.37c.27.25.43.57.49.96.24-.44.53-.77.87-.99.34-.23.72-.34,1.15-.34.29,0,.54.05.74.16.2.11.37.26.49.45.12.2.21.43.27.71.06.28.08.58.08.92v3.03Z"/><path class="cls-9" d="m70.48,31.26c-.37,0-.72-.07-1.04-.21-.32-.14-.6-.34-.83-.59s-.42-.54-.54-.86c-.13-.33-.19-.67-.19-1.05,0-.48.11-.93.33-1.33.22-.4.53-.73.92-.97s.84-.36,1.34-.36.96.12,1.34.37c.38.24.69.57.91.97.22.4.33.84.33,1.32v.15s0,.09,0,.11h-4.46c.03.37.14.7.31.99.18.29.41.52.69.69.28.17.59.25.92.25s.66-.09.97-.26c.3-.17.51-.4.63-.68l.59.16c-.11.25-.27.47-.49.67-.22.2-.48.35-.77.46-.3.11-.62.17-.96.17Zm-1.92-2.94h3.85c-.03-.38-.13-.71-.31-.99s-.41-.51-.69-.67c-.28-.16-.6-.24-.94-.24s-.65.08-.93.24c-.28.16-.51.39-.69.67-.18.29-.28.62-.3.98Z"/><path class="cls-9" d="m78.48,31.16h-.68v-2.89c0-.61-.09-1.05-.27-1.34-.18-.28-.46-.42-.85-.42-.27,0-.53.06-.79.19-.26.13-.49.3-.69.53s-.34.47-.42.76v3.17h-.68v-5.19h.62v1.18c.14-.25.32-.47.55-.66s.48-.34.77-.44.58-.16.89-.16c.29,0,.53.05.73.16.2.11.36.26.48.45.12.2.21.43.26.71.05.28.08.58.08.92v3.03Z"/><path class="cls-9" d="m82.38,30.95c-.05.02-.14.06-.25.11-.11.05-.25.1-.41.14-.16.04-.33.06-.52.06s-.38-.04-.54-.11c-.17-.07-.3-.19-.4-.34-.1-.15-.15-.34-.15-.56v-3.75h-.72v-.54h.72v-1.76h.68v1.76h1.2v.54h-1.2v3.56c.01.19.08.33.21.42s.27.14.42.14c.19,0,.36-.03.51-.1s.25-.11.28-.13l.18.55Z"/><path class="cls-9" d="m88.78,31.21c-.5,0-.95-.1-1.36-.3-.41-.2-.76-.47-1.05-.81s-.52-.73-.68-1.16c-.16-.43-.24-.87-.24-1.32s.08-.93.25-1.35c.17-.43.4-.81.71-1.15.3-.34.66-.6,1.06-.8s.85-.29,1.32-.29c.5,0,.95.1,1.36.31.41.21.75.48,1.04.83s.52.73.67,1.16c.16.43.24.86.24,1.31,0,.47-.08.92-.25,1.35-.17.43-.4.81-.7,1.15-.3.34-.65.6-1.06.79-.41.19-.85.29-1.32.29Zm-2.63-3.6c0,.39.06.76.19,1.11.13.36.31.67.54.95.23.28.51.5.83.66.32.16.68.25,1.06.25.41,0,.77-.08,1.1-.25.32-.17.6-.4.83-.68.23-.28.41-.6.53-.96.12-.35.18-.71.18-1.08,0-.39-.06-.76-.19-1.11-.13-.35-.31-.67-.54-.95-.24-.28-.52-.5-.83-.66s-.67-.24-1.06-.24-.76.08-1.08.25c-.32.17-.6.39-.83.67s-.41.6-.53.96c-.12.35-.19.71-.19,1.08Z"/><path class="cls-9" d="m95.84,31.26c-.41,0-.78-.1-1.13-.31s-.62-.48-.81-.79v1.01h-.61v-7.3h.68v3.21c.23-.35.51-.64.84-.85.33-.22.71-.33,1.14-.33.37,0,.69.08.98.23.29.15.54.36.75.61.21.26.36.54.47.87.11.32.16.65.16.99,0,.36-.06.71-.19,1.02s-.3.6-.52.85c-.23.25-.49.44-.79.59-.3.14-.62.21-.98.21Zm-.16-.6c.28,0,.54-.06.78-.17.24-.11.45-.27.62-.47s.31-.42.4-.67c.09-.25.14-.5.14-.77,0-.36-.08-.71-.23-1.03-.16-.32-.37-.58-.65-.77-.28-.2-.6-.29-.97-.29-.27,0-.52.06-.75.18s-.43.28-.61.47c-.18.2-.32.41-.44.64v1.61c.03.18.1.35.21.5.11.16.25.29.42.4.17.11.35.2.54.27.19.07.37.1.54.1Z"/><path class="cls-9" d="m98.68,32.97c-.22,0-.43-.03-.62-.09-.2-.06-.37-.16-.52-.3l.33-.46c.1.09.21.16.34.19s.26.05.39.05c.16,0,.31-.04.45-.12.14-.08.26-.19.35-.33.09-.14.13-.3.13-.47v-5.46h.68v5.42c0,.31-.07.58-.22.82-.15.24-.34.43-.57.56-.23.13-.48.2-.74.2Zm.85-8.09v-1h.68v1h-.68Z"/><path class="cls-9" d="m103.96,31.26c-.37,0-.72-.07-1.04-.21-.32-.14-.6-.34-.83-.59s-.42-.54-.54-.86c-.13-.33-.19-.67-.19-1.05,0-.48.11-.93.33-1.33.22-.4.53-.73.92-.97s.84-.36,1.34-.36.96.12,1.34.37c.38.24.69.57.91.97.22.4.33.84.33,1.32v.15s0,.09,0,.11h-4.46c.03.37.14.7.31.99.18.29.41.52.69.69.28.17.59.25.92.25s.66-.09.97-.26c.3-.17.51-.4.63-.68l.59.16c-.11.25-.27.47-.49.67-.22.2-.48.35-.77.46-.3.11-.62.17-.96.17Zm-1.92-2.94h3.85c-.03-.38-.13-.71-.31-.99s-.41-.51-.69-.67c-.28-.16-.6-.24-.94-.24s-.65.08-.93.24c-.28.16-.51.39-.69.67-.18.29-.28.62-.3.98Z"/><path class="cls-9" d="m109.84,31.26c-.38,0-.73-.07-1.04-.21-.32-.14-.59-.34-.83-.59-.24-.25-.42-.54-.55-.87-.13-.32-.19-.67-.19-1.03,0-.49.11-.94.33-1.34.22-.4.53-.73.92-.96.39-.24.85-.36,1.36-.36.49,0,.92.11,1.29.33.37.22.65.52.83.91l-.66.21c-.15-.27-.35-.48-.61-.62-.26-.15-.56-.23-.88-.23-.35,0-.66.09-.95.27s-.52.42-.69.73c-.17.31-.25.67-.25,1.06s.09.74.26,1.06.4.57.69.76c.29.19.6.28.95.28.23,0,.44-.04.65-.12.21-.08.39-.19.55-.32s.26-.29.31-.45l.67.2c-.09.25-.25.47-.46.67-.22.2-.47.35-.76.46s-.6.17-.94.17Z"/><path class="cls-9" d="m115.57,30.95c-.05.02-.14.06-.25.11-.11.05-.25.1-.41.14-.16.04-.33.06-.52.06s-.38-.04-.54-.11c-.17-.07-.3-.19-.4-.34-.1-.15-.15-.34-.15-.56v-3.75h-.72v-.54h.72v-1.76h.68v1.76h1.2v.54h-1.2v3.56c.01.19.08.33.21.42s.27.14.42.14c.19,0,.36-.03.51-.1s.25-.11.28-.13l.18.55Z"/><path class="cls-9" d="m67.32,43.16v-5.78l-2.57,4.49h-.44l-2.58-4.49v5.78h-.7v-7.1h.72l2.77,4.86,2.79-4.86h.71v7.1h-.7Z"/><path class="cls-9" d="m71.8,43.26c-.37,0-.72-.07-1.04-.21-.32-.14-.59-.34-.82-.59-.23-.25-.41-.53-.54-.85-.13-.32-.19-.66-.19-1.02s.06-.72.19-1.04c.13-.32.31-.61.54-.85s.51-.44.82-.59c.32-.14.66-.21,1.04-.21s.72.07,1.03.21c.31.14.59.34.82.59s.41.53.54.85c.13.32.19.67.19,1.04s-.06.7-.19,1.02c-.13.32-.31.61-.54.85-.23.25-.5.44-.82.59-.32.14-.67.21-1.04.21Zm-1.89-2.67c0,.38.08.73.25,1.05s.4.56.69.74.6.27.95.27.66-.09.95-.28c.29-.19.52-.44.69-.76.17-.32.26-.67.26-1.05s-.09-.73-.26-1.05-.4-.57-.69-.75c-.29-.19-.6-.28-.95-.28s-.66.1-.95.29-.51.44-.69.76-.26.67-.26,1.06Z"/><path class="cls-9" d="m75.18,40.58c0-.49.1-.94.31-1.35.2-.41.48-.73.84-.98.36-.25.77-.37,1.23-.37.43,0,.82.12,1.17.35s.61.51.81.83v-3.21h.68v6.48c0,.09.02.16.06.2.04.04.1.07.18.08v.54c-.13.02-.24.03-.31.02-.14,0-.26-.06-.37-.17-.11-.11-.16-.22-.16-.35v-.51c-.21.34-.49.61-.84.81-.35.2-.72.3-1.1.3-.36,0-.69-.07-1-.22-.3-.15-.57-.34-.79-.6-.22-.25-.4-.54-.52-.86-.12-.32-.19-.65-.19-1Zm4.35.79v-1.6c-.09-.24-.23-.45-.42-.65s-.41-.35-.66-.47c-.24-.12-.48-.17-.72-.17-.28,0-.53.06-.76.17s-.42.27-.58.47c-.16.2-.29.42-.38.67-.09.25-.13.51-.13.77,0,.28.05.54.15.79s.23.48.42.67c.18.2.39.35.62.45s.49.16.76.16c.17,0,.35-.03.54-.1.19-.07.36-.16.54-.27.17-.12.31-.25.42-.41.11-.16.18-.32.21-.5Z"/><path class="cls-9" d="m84,43.26c-.37,0-.72-.07-1.04-.21-.32-.14-.6-.34-.83-.59s-.42-.54-.54-.86c-.13-.33-.19-.67-.19-1.05,0-.48.11-.93.33-1.33.22-.4.53-.73.92-.97s.84-.36,1.34-.36.96.12,1.34.37c.38.24.69.57.91.97.22.4.33.84.33,1.32v.15s0,.09,0,.11h-4.46c.03.37.14.7.31.99.18.29.41.52.69.69.28.17.59.25.92.25s.66-.09.97-.26c.3-.17.51-.4.63-.68l.59.16c-.11.25-.27.47-.49.67-.22.2-.48.35-.77.46-.3.11-.62.17-.96.17Zm-1.92-2.94h3.85c-.03-.38-.13-.71-.31-.99s-.41-.51-.69-.67c-.28-.16-.6-.24-.94-.24s-.65.08-.93.24c-.28.16-.51.39-.69.67-.18.29-.28.62-.3.98Z"/><path class="cls-9" d="m87.65,35.86h.68v6.16c0,.26.05.43.14.51.09.08.21.12.34.12.12,0,.24-.01.36-.04.12-.03.22-.05.31-.08l.12.55c-.13.05-.28.1-.46.13-.18.03-.34.05-.48.05-.31,0-.55-.09-.73-.27-.18-.18-.28-.43-.28-.74v-6.38Z"/><path class="cls-9" d="m162.09,14.82v-5.68h1.93c.6,0,1.1.13,1.51.38s.71.59.91,1.02c.2.43.3.91.3,1.43,0,.58-.11,1.08-.33,1.5-.22.43-.54.76-.94.99-.41.23-.89.35-1.44.35h-1.93Zm4.09-2.85c0-.45-.08-.86-.25-1.21s-.41-.63-.73-.83c-.32-.2-.71-.3-1.18-.3h-1.37v4.69h1.37c.47,0,.86-.1,1.18-.31.32-.21.56-.49.73-.84.17-.35.25-.75.25-1.2Z"/><path class="cls-9" d="m169.47,14.9c-.3,0-.57-.06-.83-.17-.25-.11-.47-.27-.66-.47-.18-.2-.33-.43-.43-.68-.1-.26-.15-.53-.15-.82s.05-.57.15-.83c.1-.26.25-.48.43-.68.19-.2.41-.35.66-.47.25-.11.53-.17.83-.17s.57.06.82.17c.25.11.47.27.66.47.19.2.33.43.43.68.1.26.15.53.15.83s-.05.56-.15.82c-.1.26-.24.49-.43.68-.18.2-.4.36-.66.47-.25.11-.53.17-.84.17Zm-1.51-2.13c0,.31.07.59.2.84.14.25.32.45.55.6.23.15.48.22.76.22s.53-.07.76-.22c.23-.15.41-.35.55-.61s.21-.54.21-.84-.07-.59-.21-.84c-.14-.25-.32-.46-.55-.6-.23-.15-.48-.22-.76-.22s-.53.08-.76.23c-.23.15-.41.36-.55.61s-.21.53-.21.85Z"/><path class="cls-9" d="m174.27,14.9c-.3,0-.58-.06-.84-.17-.25-.11-.47-.27-.66-.47-.19-.2-.34-.43-.44-.69-.1-.26-.16-.54-.16-.83,0-.39.09-.75.26-1.07.18-.32.42-.58.74-.77.31-.19.68-.29,1.09-.29.39,0,.73.09,1.03.27.3.18.52.42.66.72l-.53.17c-.12-.21-.28-.38-.49-.5-.21-.12-.44-.18-.7-.18-.28,0-.53.07-.76.21-.23.14-.41.34-.55.59-.14.25-.2.53-.2.85s.07.6.21.85c.14.25.32.46.55.61.23.15.48.23.76.23.18,0,.36-.03.52-.1s.31-.15.44-.26c.12-.11.21-.23.25-.36l.54.16c-.08.2-.2.38-.37.53-.17.16-.38.28-.61.37-.23.09-.48.13-.75.13Z"/><path class="cls-9" d="m176.81,13.1v-2.44h.54v2.34c0,.47.08.83.24,1.06.16.23.4.35.72.35.21,0,.42-.05.62-.14.2-.09.38-.23.53-.4.15-.17.27-.37.35-.6v-2.61h.54v3.5c0,.07.02.13.05.16.03.03.08.05.14.06v.43c-.06,0-.11,0-.15.01-.04,0-.07,0-.1,0-.11-.01-.2-.05-.28-.13-.08-.07-.12-.17-.12-.27l-.02-.56c-.18.32-.43.57-.74.75s-.65.27-1.01.27c-.44,0-.77-.15-.99-.45-.22-.3-.34-.75-.34-1.34Z"/><path class="cls-9" d="m187.8,14.82h-.54v-2.31c0-.48-.08-.84-.23-1.06-.15-.23-.38-.34-.69-.34s-.6.11-.84.33c-.25.22-.42.51-.52.86v2.53h-.54v-2.31c0-.49-.07-.84-.22-1.07-.15-.23-.38-.34-.69-.34s-.59.11-.84.33c-.25.22-.43.5-.53.86v2.54h-.54v-4.15h.5v.95c.18-.32.4-.57.68-.75.27-.17.58-.26.92-.26s.63.1.84.29c.21.2.34.45.39.77.19-.35.42-.62.69-.8.27-.18.57-.27.92-.27.23,0,.43.04.6.13.16.08.29.21.39.36.1.16.17.34.22.56.05.22.07.47.07.74v2.43Z"/><path class="cls-9" d="m190.75,14.9c-.3,0-.58-.06-.83-.17-.26-.11-.48-.27-.66-.47-.19-.2-.33-.43-.44-.69s-.16-.54-.16-.84c0-.39.09-.74.27-1.06.18-.32.43-.58.74-.77.31-.19.67-.29,1.07-.29s.77.1,1.08.29c.31.2.55.45.72.77.18.32.26.67.26,1.05v.12s0,.07,0,.09h-3.57c.03.3.11.56.25.79.14.23.33.41.55.55.23.14.47.2.74.2s.53-.07.77-.21.41-.32.51-.54l.47.13c-.08.2-.22.38-.39.54-.18.16-.38.28-.62.37-.24.09-.49.13-.76.13Zm-1.54-2.35h3.08c-.02-.3-.1-.56-.24-.79-.14-.23-.33-.41-.55-.53-.23-.13-.48-.19-.75-.19s-.52.06-.74.19c-.22.13-.41.31-.55.54s-.22.49-.24.79Z"/><path class="cls-9" d="m197.15,14.82h-.54v-2.31c0-.49-.07-.84-.22-1.07-.14-.23-.37-.34-.68-.34-.21,0-.42.05-.63.15-.21.1-.39.24-.55.42s-.27.38-.34.61v2.54h-.54v-4.15h.5v.95c.11-.2.26-.38.44-.53.18-.15.39-.27.62-.35.23-.08.47-.13.71-.13.23,0,.42.04.58.13.16.08.29.21.38.36.1.16.17.34.21.56.04.22.06.47.06.74v2.43Z"/><path class="cls-9" d="m200.27,14.65s-.11.05-.2.09c-.09.04-.2.08-.33.11-.13.03-.27.05-.42.05s-.3-.03-.44-.09c-.14-.06-.24-.15-.32-.27-.08-.12-.12-.27-.12-.45v-3h-.58v-.43h.58v-1.41h.54v1.41h.96v.43h-.96v2.85c.01.15.07.26.16.34.1.08.21.11.34.11.15,0,.29-.03.41-.08s.2-.09.22-.11l.14.44Z"/><path class="cls-9" d="m177.62,53.9h-.54v-2.31c0-.47-.08-.82-.25-1.05-.17-.24-.4-.35-.71-.35-.2,0-.4.05-.6.15-.2.1-.38.24-.53.42-.15.18-.26.38-.32.61v2.54h-.54v-5.84h.54v2.63c.17-.31.4-.55.69-.74s.61-.27.95-.27c.24,0,.44.04.61.13.17.08.3.21.41.37.1.16.18.35.23.56.05.21.07.46.07.73v2.43Z"/><path class="cls-9" d="m180.74,53.73s-.11.05-.2.09c-.09.04-.2.08-.33.11-.13.03-.27.05-.42.05s-.3-.03-.44-.09c-.14-.06-.24-.15-.32-.27-.08-.12-.12-.27-.12-.45v-3h-.58v-.43h.58v-1.41h.54v1.41h.96v.43h-.96v2.85c.01.15.07.26.16.34.1.08.21.11.34.11.15,0,.29-.03.41-.08s.2-.09.22-.11l.14.44Z"/><path class="cls-9" d="m187.62,53.9h-.54v-2.31c0-.48-.08-.84-.23-1.06-.15-.23-.38-.34-.69-.34s-.6.11-.84.33c-.25.22-.42.51-.52.86v2.53h-.54v-2.31c0-.49-.07-.84-.22-1.07-.15-.23-.38-.34-.69-.34s-.59.11-.84.33c-.25.22-.43.5-.53.86v2.54h-.54v-4.15h.5v.95c.18-.32.4-.57.68-.75.27-.17.58-.26.92-.26s.63.1.84.29c.21.2.34.45.39.77.19-.35.42-.62.69-.8.27-.18.57-.27.92-.27.23,0,.43.04.6.13.16.08.29.21.39.36.1.16.17.34.22.56.05.22.07.47.07.74v2.43Z"/><path class="cls-9" d="m188.8,48.06h.54v4.92c0,.21.04.35.11.41s.17.1.27.1c.1,0,.19-.01.29-.03.1-.02.18-.04.25-.06l.1.44c-.1.04-.23.08-.37.1-.15.03-.27.04-.38.04-.25,0-.44-.07-.59-.22-.15-.14-.22-.34-.22-.6v-5.11Z"/><path class="cls-9" d="m81.99,92.13h-.54v-2.31c0-.47-.08-.82-.25-1.05-.17-.24-.4-.35-.71-.35-.2,0-.4.05-.6.15-.2.1-.38.24-.53.42-.15.18-.26.38-.32.61v2.54h-.54v-5.84h.54v2.63c.17-.31.4-.55.69-.74s.61-.27.95-.27c.24,0,.44.04.61.13.17.08.3.21.41.37.1.16.18.35.23.56.05.21.07.46.07.73v2.43Z"/><path class="cls-9" d="m84.95,92.21c-.3,0-.58-.06-.83-.17-.26-.11-.48-.27-.66-.47-.19-.2-.33-.43-.44-.69s-.16-.54-.16-.84c0-.39.09-.74.27-1.06.18-.32.43-.58.74-.77.31-.19.67-.29,1.07-.29s.77.1,1.08.29c.31.2.55.45.72.77.18.32.26.67.26,1.05v.12s0,.07,0,.09h-3.57c.03.3.11.56.25.79.14.23.33.41.55.55.23.14.47.2.74.2s.53-.07.77-.21.41-.32.51-.54l.47.13c-.08.2-.22.38-.39.54-.18.16-.38.28-.62.37-.24.09-.49.13-.76.13Zm-1.54-2.35h3.08c-.02-.3-.1-.56-.24-.79-.14-.23-.33-.41-.55-.53-.23-.13-.48-.19-.75-.19s-.52.06-.74.19c-.22.13-.41.31-.55.54s-.22.49-.24.79Z"/><path class="cls-9" d="m87.51,90.94c0-.26.07-.48.22-.67.15-.19.36-.33.62-.44.26-.1.57-.16.92-.16.2,0,.41.02.63.05.22.03.41.08.58.14v-.35c0-.35-.1-.63-.31-.83-.21-.21-.5-.31-.86-.31-.22,0-.44.04-.66.12-.22.08-.44.2-.68.36l-.21-.38c.27-.19.54-.33.8-.42.26-.09.53-.14.8-.14.51,0,.92.15,1.22.44s.45.69.45,1.21v1.92c0,.07.02.13.05.16.03.03.08.05.15.06v.43c-.06,0-.11.01-.15.02-.04,0-.07,0-.1,0-.13,0-.23-.05-.3-.13-.07-.08-.11-.17-.11-.26v-.3c-.19.24-.44.43-.74.56-.3.13-.6.2-.91.2-.27,0-.51-.06-.72-.17-.22-.11-.38-.27-.5-.46-.12-.19-.18-.41-.18-.64Zm2.79.32c.06-.07.1-.15.14-.21.03-.07.05-.13.05-.18v-.6c-.18-.07-.37-.12-.56-.16-.19-.04-.39-.06-.59-.06-.39,0-.7.08-.94.23-.24.15-.36.36-.36.63,0,.15.04.3.12.43.08.13.2.25.35.33s.34.13.54.13c.26,0,.51-.05.73-.15.23-.1.4-.23.52-.39Z"/><path class="cls-9" d="m91.93,90.07c0-.39.08-.75.24-1.08.16-.33.39-.59.68-.78.29-.2.62-.29.98-.29.35,0,.66.09.93.28.27.18.49.41.64.67v-2.57h.54v5.18c0,.07.02.13.05.16.03.04.08.06.14.06v.43c-.11.02-.19.02-.25.02-.11,0-.21-.05-.3-.14-.09-.08-.13-.18-.13-.28v-.41c-.17.27-.39.49-.67.65-.28.16-.58.24-.88.24-.29,0-.55-.06-.8-.18-.24-.12-.45-.28-.63-.48s-.32-.43-.42-.69c-.1-.26-.15-.52-.15-.8Zm3.48.64v-1.28c-.07-.19-.18-.36-.34-.52s-.33-.28-.52-.37c-.19-.09-.39-.14-.58-.14-.22,0-.43.05-.61.14-.18.09-.34.22-.47.38-.13.16-.23.34-.3.54-.07.2-.1.41-.1.62,0,.22.04.43.12.64.08.2.19.38.33.54s.31.28.5.36c.19.08.39.13.61.13.14,0,.28-.03.43-.08.15-.05.29-.13.43-.22s.25-.2.34-.33.15-.26.17-.4Z"/><path class="cls-9" d="m208.56,128.18h-.54v-2.31c0-.47-.08-.82-.25-1.05-.17-.24-.4-.35-.71-.35-.2,0-.4.05-.6.15-.2.1-.38.24-.53.42-.15.18-.26.38-.32.61v2.54h-.54v-5.84h.54v2.63c.17-.31.4-.55.69-.74s.61-.27.95-.27c.24,0,.44.04.61.13.17.08.3.21.41.37.1.16.18.35.23.56.05.21.07.46.07.73v2.43Z"/><path class="cls-9" d="m211.52,128.26c-.3,0-.58-.06-.83-.17-.26-.11-.48-.27-.66-.47-.19-.2-.33-.43-.44-.69s-.16-.54-.16-.84c0-.39.09-.74.27-1.06.18-.32.43-.58.74-.77.31-.19.67-.29,1.07-.29s.77.1,1.08.29c.31.2.55.45.72.77.18.32.26.67.26,1.05v.12s0,.07,0,.09h-3.57c.03.3.11.56.25.79.14.23.33.41.55.55.23.14.47.2.74.2s.53-.07.77-.21.41-.32.51-.54l.47.13c-.08.2-.22.38-.39.54-.18.16-.38.28-.62.37-.24.09-.49.13-.76.13Zm-1.54-2.35h3.08c-.02-.3-.1-.56-.24-.79-.14-.23-.33-.41-.55-.53-.23-.13-.48-.19-.75-.19s-.52.06-.74.19c-.22.13-.41.31-.55.54s-.22.49-.24.79Z"/><path class="cls-9" d="m214.08,126.99c0-.26.07-.48.22-.67.15-.19.36-.33.62-.44.26-.1.57-.16.92-.16.2,0,.41.02.63.05.22.03.41.08.58.14v-.35c0-.35-.1-.63-.31-.83-.21-.21-.5-.31-.86-.31-.22,0-.44.04-.66.12-.22.08-.44.2-.68.36l-.21-.38c.27-.19.54-.33.8-.42.26-.09.53-.14.8-.14.51,0,.92.15,1.22.44s.45.69.45,1.21v1.92c0,.07.02.13.05.16.03.03.08.05.15.06v.43c-.06,0-.11.01-.15.02-.04,0-.07,0-.1,0-.13,0-.23-.05-.3-.13-.07-.08-.11-.17-.11-.26v-.3c-.19.24-.44.43-.74.56-.3.13-.6.2-.91.2-.27,0-.51-.06-.72-.17-.22-.11-.38-.27-.5-.46-.12-.19-.18-.41-.18-.64Zm2.79.32c.06-.07.1-.15.14-.21.03-.07.05-.13.05-.18v-.6c-.18-.07-.37-.12-.56-.16-.19-.04-.39-.06-.59-.06-.39,0-.7.08-.94.23-.24.15-.36.36-.36.63,0,.15.04.3.12.43.08.13.2.25.35.33s.34.13.54.13c.26,0,.51-.05.73-.15.23-.1.4-.23.52-.39Z"/><path class="cls-9" d="m218.49,126.12c0-.39.08-.75.24-1.08.16-.33.39-.59.68-.78.29-.2.62-.29.98-.29.35,0,.66.09.93.28.27.18.49.41.64.67v-2.57h.54v5.18c0,.07.02.13.05.16.03.04.08.06.14.06v.43c-.11.02-.19.02-.25.02-.11,0-.21-.05-.3-.14-.09-.08-.13-.18-.13-.28v-.41c-.17.27-.39.49-.67.65-.28.16-.58.24-.88.24-.29,0-.55-.06-.8-.18-.24-.12-.45-.28-.63-.48s-.32-.43-.42-.69c-.1-.26-.15-.52-.15-.8Zm3.48.64v-1.28c-.07-.19-.18-.36-.34-.52s-.33-.28-.52-.37c-.19-.09-.39-.14-.58-.14-.22,0-.43.05-.61.14-.18.09-.34.22-.47.38-.13.16-.23.34-.3.54-.07.2-.1.41-.1.62,0,.22.04.43.12.64.08.2.19.38.33.54s.31.28.5.36c.19.08.39.13.61.13.14,0,.28-.03.43-.08.15-.05.29-.13.43-.22s.25-.2.34-.33.15-.26.17-.4Z"/><path class="cls-9" d="m225.55,128.26c-.3,0-.58-.06-.83-.17-.26-.11-.48-.27-.66-.47-.19-.2-.33-.43-.44-.69s-.16-.54-.16-.84c0-.39.09-.74.27-1.06.18-.32.43-.58.74-.77.31-.19.67-.29,1.07-.29s.77.1,1.08.29c.31.2.55.45.72.77.18.32.26.67.26,1.05v.12s0,.07,0,.09h-3.57c.03.3.11.56.25.79.14.23.33.41.55.55.23.14.47.2.74.2s.53-.07.77-.21.41-.32.51-.54l.47.13c-.08.2-.22.38-.39.54-.18.16-.38.28-.62.37-.24.09-.49.13-.76.13Zm-1.54-2.35h3.08c-.02-.3-.1-.56-.24-.79-.14-.23-.33-.41-.55-.53-.23-.13-.48-.19-.75-.19s-.52.06-.74.19c-.22.13-.41.31-.55.54s-.22.49-.24.79Z"/><path class="cls-9" d="m230.52,124.49c-.36.01-.68.11-.96.3-.27.19-.47.46-.58.79v2.59h-.54v-4.15h.51v.98c.14-.29.33-.53.57-.71s.49-.28.76-.3c.05,0,.1,0,.14,0s.07,0,.1,0v.5Z"/><path class="cls-9" d="m21.88,128.18h-.54v-2.31c0-.48-.08-.84-.23-1.06-.15-.23-.38-.34-.69-.34s-.6.11-.84.33c-.25.22-.42.51-.52.86v2.53h-.54v-2.31c0-.49-.07-.84-.22-1.07-.15-.23-.38-.34-.69-.34s-.59.11-.84.33c-.25.22-.43.5-.53.86v2.54h-.54v-4.15h.5v.95c.18-.32.4-.57.68-.75.27-.17.58-.26.92-.26s.63.1.84.29c.21.2.34.45.39.77.19-.35.42-.62.69-.8.27-.18.57-.27.92-.27.23,0,.43.04.6.13.16.08.29.21.39.36.1.16.17.34.22.56.05.22.07.47.07.74v2.43Z"/><path class="cls-9" d="m24.84,128.26c-.3,0-.58-.06-.83-.17-.26-.11-.48-.27-.66-.47-.19-.2-.33-.43-.44-.69s-.16-.54-.16-.84c0-.39.09-.74.27-1.06.18-.32.43-.58.74-.77.31-.19.67-.29,1.07-.29s.77.1,1.08.29c.31.2.55.45.72.77.18.32.26.67.26,1.05v.12s0,.07,0,.09h-3.57c.03.3.11.56.25.79.14.23.33.41.55.55.23.14.47.2.74.2s.53-.07.77-.21.41-.32.51-.54l.47.13c-.08.2-.22.38-.39.54-.18.16-.38.28-.62.37-.24.09-.49.13-.76.13Zm-1.54-2.35h3.08c-.02-.3-.1-.56-.24-.79-.14-.23-.33-.41-.55-.53-.23-.13-.48-.19-.75-.19s-.52.06-.74.19c-.22.13-.41.31-.55.54s-.22.49-.24.79Z"/><path class="cls-9" d="m29.69,128.01s-.11.05-.2.09c-.09.04-.2.08-.33.11-.13.03-.27.05-.42.05s-.3-.03-.44-.09c-.14-.06-.24-.15-.32-.27-.08-.12-.12-.27-.12-.45v-3h-.58v-.43h.58v-1.41h.54v1.41h.96v.43h-.96v2.85c.01.15.07.26.16.34.1.08.21.11.34.11.15,0,.29-.03.41-.08s.2-.09.22-.11l.14.44Z"/><path class="cls-9" d="m30.04,126.99c0-.26.07-.48.22-.67.15-.19.36-.33.62-.44.26-.1.57-.16.92-.16.2,0,.41.02.63.05.22.03.41.08.58.14v-.35c0-.35-.1-.63-.31-.83-.21-.21-.5-.31-.86-.31-.22,0-.44.04-.66.12-.22.08-.44.2-.68.36l-.21-.38c.27-.19.54-.33.8-.42.26-.09.53-.14.8-.14.51,0,.92.15,1.22.44s.45.69.45,1.21v1.92c0,.07.02.13.05.16.03.03.08.05.15.06v.43c-.06,0-.11.01-.15.02-.04,0-.07,0-.1,0-.13,0-.23-.05-.3-.13-.07-.08-.11-.17-.11-.26v-.3c-.19.24-.44.43-.74.56-.3.13-.6.2-.91.2-.27,0-.51-.06-.72-.17-.22-.11-.38-.27-.5-.46-.12-.19-.18-.41-.18-.64Zm2.79.32c.06-.07.1-.15.14-.21.03-.07.05-.13.05-.18v-.6c-.18-.07-.37-.12-.56-.16-.19-.04-.39-.06-.59-.06-.39,0-.7.08-.94.23-.24.15-.36.36-.36.63,0,.15.04.3.12.43.08.13.2.25.35.33s.34.13.54.13c.26,0,.51-.05.73-.15.23-.1.4-.23.52-.39Z"/><path class="cls-9" d="m85.88,128.18h-.54v-2.31c0-.48-.08-.84-.23-1.06-.15-.23-.38-.34-.69-.34s-.6.11-.84.33c-.25.22-.42.51-.52.86v2.53h-.54v-2.31c0-.49-.07-.84-.22-1.07-.15-.23-.38-.34-.69-.34s-.59.11-.84.33c-.25.22-.43.5-.53.86v2.54h-.54v-4.15h.5v.95c.18-.32.4-.57.68-.75.27-.17.58-.26.92-.26s.63.1.84.29c.21.2.34.45.39.77.19-.35.42-.62.69-.8.27-.18.57-.27.92-.27.23,0,.43.04.6.13.16.08.29.21.39.36.1.16.17.34.22.56.05.22.07.47.07.74v2.43Z"/><path class="cls-9" d="m88.84,128.26c-.3,0-.58-.06-.83-.17-.26-.11-.48-.27-.66-.47-.19-.2-.33-.43-.44-.69s-.16-.54-.16-.84c0-.39.09-.74.27-1.06.18-.32.43-.58.74-.77.31-.19.67-.29,1.07-.29s.77.1,1.08.29c.31.2.55.45.72.77.18.32.26.67.26,1.05v.12s0,.07,0,.09h-3.57c.03.3.11.56.25.79.14.23.33.41.55.55.23.14.47.2.74.2s.53-.07.77-.21.41-.32.51-.54l.47.13c-.08.2-.22.38-.39.54-.18.16-.38.28-.62.37-.24.09-.49.13-.76.13Zm-1.54-2.35h3.08c-.02-.3-.1-.56-.24-.79-.14-.23-.33-.41-.55-.53-.23-.13-.48-.19-.75-.19s-.52.06-.74.19c-.22.13-.41.31-.55.54s-.22.49-.24.79Z"/><path class="cls-9" d="m93.69,128.01s-.11.05-.2.09c-.09.04-.2.08-.33.11-.13.03-.27.05-.42.05s-.3-.03-.44-.09c-.14-.06-.24-.15-.32-.27-.08-.12-.12-.27-.12-.45v-3h-.58v-.43h.58v-1.41h.54v1.41h.96v.43h-.96v2.85c.01.15.07.26.16.34.1.08.21.11.34.11.15,0,.29-.03.41-.08s.2-.09.22-.11l.14.44Z"/><path class="cls-9" d="m94.04,126.99c0-.26.07-.48.22-.67.15-.19.36-.33.62-.44.26-.1.57-.16.92-.16.2,0,.41.02.63.05.22.03.41.08.58.14v-.35c0-.35-.1-.63-.31-.83-.21-.21-.5-.31-.86-.31-.22,0-.44.04-.66.12-.22.08-.44.2-.68.36l-.21-.38c.27-.19.54-.33.8-.42.26-.09.53-.14.8-.14.51,0,.92.15,1.22.44s.45.69.45,1.21v1.92c0,.07.02.13.05.16.03.03.08.05.15.06v.43c-.06,0-.11.01-.15.02-.04,0-.07,0-.1,0-.13,0-.23-.05-.3-.13-.07-.08-.11-.17-.11-.26v-.3c-.19.24-.44.43-.74.56-.3.13-.6.2-.91.2-.27,0-.51-.06-.72-.17-.22-.11-.38-.27-.5-.46-.12-.19-.18-.41-.18-.64Zm2.79.32c.06-.07.1-.15.14-.21.03-.07.05-.13.05-.18v-.6c-.18-.07-.37-.12-.56-.16-.19-.04-.39-.06-.59-.06-.39,0-.7.08-.94.23-.24.15-.36.36-.36.63,0,.15.04.3.12.43.08.13.2.25.35.33s.34.13.54.13c.26,0,.51-.05.73-.15.23-.1.4-.23.52-.39Z"/><path class="cls-9" d="m142.74,128.01s-.11.05-.2.09c-.09.04-.2.08-.33.11-.13.03-.27.05-.42.05s-.3-.03-.44-.09c-.14-.06-.24-.15-.32-.27-.08-.12-.12-.27-.12-.45v-3h-.58v-.43h.58v-1.41h.54v1.41h.96v.43h-.96v2.85c.01.15.07.26.16.34.1.08.21.11.34.11.15,0,.29-.03.41-.08s.2-.09.22-.11l.14.44Z"/><path class="cls-9" d="m143.42,123.14v-.8h.54v.8h-.54Zm0,5.04v-4.17h.54v4.17h-.54Z"/><path class="cls-9" d="m147.16,128.01s-.11.05-.2.09c-.09.04-.2.08-.33.11-.13.03-.27.05-.42.05s-.3-.03-.44-.09c-.14-.06-.24-.15-.32-.27-.08-.12-.12-.27-.12-.45v-3h-.58v-.43h.58v-1.41h.54v1.41h.96v.43h-.96v2.85c.01.15.07.26.16.34.1.08.21.11.34.11.15,0,.29-.03.41-.08s.2-.09.22-.11l.14.44Z"/><path class="cls-9" d="m147.87,122.34h.54v4.92c0,.21.04.35.11.41s.17.1.27.1c.1,0,.19-.01.29-.03.1-.02.18-.04.25-.06l.1.44c-.1.04-.23.08-.37.1-.15.03-.27.04-.38.04-.25,0-.44-.07-.59-.22-.15-.14-.22-.34-.22-.6v-5.11Z"/><path class="cls-9" d="m151.82,128.26c-.3,0-.58-.06-.83-.17-.26-.11-.48-.27-.66-.47-.19-.2-.33-.43-.44-.69s-.16-.54-.16-.84c0-.39.09-.74.27-1.06.18-.32.43-.58.74-.77.31-.19.67-.29,1.07-.29s.77.1,1.08.29c.31.2.55.45.72.77.18.32.26.67.26,1.05v.12s0,.07,0,.09h-3.57c.03.3.11.56.25.79.14.23.33.41.55.55.23.14.47.2.74.2s.53-.07.77-.21.41-.32.51-.54l.47.13c-.08.2-.22.38-.39.54-.18.16-.38.28-.62.37-.24.09-.49.13-.76.13Zm-1.54-2.35h3.08c-.02-.3-.1-.56-.24-.79-.14-.23-.33-.41-.55-.53-.23-.13-.48-.19-.75-.19s-.52.06-.74.19c-.22.13-.41.31-.55.54s-.22.49-.24.79Z"/><path class="cls-9" d="m142.8,153.65s-.11.05-.2.09c-.09.04-.2.08-.33.11-.13.03-.27.05-.42.05s-.3-.03-.44-.09c-.14-.06-.24-.15-.32-.27-.08-.12-.12-.27-.12-.45v-3h-.58v-.43h.58v-1.41h.54v1.41h.96v.43h-.96v2.85c.01.15.07.26.16.34.1.08.21.11.34.11.15,0,.29-.03.41-.08s.2-.09.22-.11l.14.44Z"/><path class="cls-9" d="m145.21,153.9c-.3,0-.58-.06-.83-.17-.26-.11-.48-.27-.66-.47-.19-.2-.33-.43-.44-.69s-.16-.54-.16-.84c0-.39.09-.74.27-1.06.18-.32.43-.58.74-.77.31-.19.67-.29,1.07-.29s.77.1,1.08.29c.31.2.55.45.72.77.18.32.26.67.26,1.05v.12s0,.07,0,.09h-3.57c.03.3.11.56.25.79.14.23.33.41.55.55.23.14.47.2.74.2s.53-.07.77-.21.41-.32.51-.54l.47.13c-.08.2-.22.38-.39.54-.18.16-.38.28-.62.37-.24.09-.49.13-.76.13Zm-1.54-2.35h3.08c-.02-.3-.1-.56-.24-.79-.14-.23-.33-.41-.55-.53-.23-.13-.48-.19-.75-.19s-.52.06-.74.19c-.22.13-.41.31-.55.54s-.22.49-.24.79Z"/><path class="cls-9" d="m148.07,149.67l1.22,1.63.06.12.06-.12,1.22-1.63h.62l-1.58,2.09,1.58,2.06h-.62l-1.22-1.62-.06-.11-.06.11-1.22,1.62h-.62l1.58-2.06-1.58-2.09h.61Z"/><path class="cls-9" d="m153.97,153.65s-.11.05-.2.09c-.09.04-.2.08-.33.11-.13.03-.27.05-.42.05s-.3-.03-.44-.09c-.14-.06-.24-.15-.32-.27-.08-.12-.12-.27-.12-.45v-3h-.58v-.43h.58v-1.41h.54v1.41h.96v.43h-.96v2.85c.01.15.07.26.16.34.1.08.21.11.34.11.15,0,.29-.03.41-.08s.2-.09.22-.11l.14.44Z"/><path class="cls-9" d="m362.28,156.98s-.11.05-.2.09c-.09.04-.2.08-.33.11-.13.03-.27.05-.42.05s-.3-.03-.44-.09c-.14-.06-.24-.15-.32-.27-.08-.12-.12-.27-.12-.45v-3h-.58v-.43h.58v-1.41h.54v1.41h.96v.43h-.96v2.85c.01.15.07.26.16.34.1.08.21.11.34.11.15,0,.29-.03.41-.08s.2-.09.22-.11l.14.44Z"/><path class="cls-9" d="m364.69,157.23c-.3,0-.58-.06-.83-.17-.26-.11-.48-.27-.66-.47-.19-.2-.33-.43-.44-.69s-.16-.54-.16-.84c0-.39.09-.74.27-1.06.18-.32.43-.58.74-.77.31-.19.67-.29,1.07-.29s.77.1,1.08.29c.31.2.55.45.72.77.18.32.26.67.26,1.05v.12s0,.07,0,.09h-3.57c.03.3.11.56.25.79.14.23.33.41.55.55.23.14.47.2.74.2s.53-.07.77-.21.41-.32.51-.54l.47.13c-.08.2-.22.38-.39.54-.18.16-.38.28-.62.37-.24.09-.49.13-.76.13Zm-1.54-2.35h3.08c-.02-.3-.1-.56-.24-.79-.14-.23-.33-.41-.55-.53-.23-.13-.48-.19-.75-.19s-.52.06-.74.19c-.22.13-.41.31-.55.54s-.22.49-.24.79Z"/><path class="cls-9" d="m367.55,153l1.22,1.63.06.12.06-.12,1.22-1.63h.62l-1.58,2.09,1.58,2.06h-.62l-1.22-1.62-.06-.11-.06.11-1.22,1.62h-.62l1.58-2.06-1.58-2.09h.61Z"/><path class="cls-9" d="m373.46,156.98s-.11.05-.2.09c-.09.04-.2.08-.33.11-.13.03-.27.05-.42.05s-.3-.03-.44-.09c-.14-.06-.24-.15-.32-.27-.08-.12-.12-.27-.12-.45v-3h-.58v-.43h.58v-1.41h.54v1.41h.96v.43h-.96v2.85c.01.15.07.26.16.34.1.08.21.11.34.11.15,0,.29-.03.41-.08s.2-.09.22-.11l.14.44Z"/><path class="cls-9" d="m181.82,179.85s-.11.05-.2.09c-.09.04-.2.08-.33.11-.13.03-.27.05-.42.05s-.3-.03-.44-.09c-.14-.06-.24-.15-.32-.27-.08-.12-.12-.27-.12-.45v-3h-.58v-.43h.58v-1.41h.54v1.41h.96v.43h-.96v2.85c.01.15.07.26.16.34.1.08.21.11.34.11.15,0,.29-.03.41-.08s.2-.09.22-.11l.14.44Z"/><path class="cls-9" d="m184.22,180.09c-.3,0-.58-.06-.83-.17-.26-.11-.48-.27-.66-.47-.19-.2-.33-.43-.44-.69s-.16-.54-.16-.84c0-.39.09-.74.27-1.06.18-.32.43-.58.74-.77.31-.19.67-.29,1.07-.29s.77.1,1.08.29c.31.2.55.45.72.77.18.32.26.67.26,1.05v.12s0,.07,0,.09h-3.57c.03.3.11.56.25.79.14.23.33.41.55.55.23.14.47.2.74.2s.53-.07.77-.21.41-.32.51-.54l.47.13c-.08.2-.22.38-.39.54-.18.16-.38.28-.62.37-.24.09-.49.13-.76.13Zm-1.54-2.35h3.08c-.02-.3-.1-.56-.24-.79-.14-.23-.33-.41-.55-.53-.23-.13-.48-.19-.75-.19s-.52.06-.74.19c-.22.13-.41.31-.55.54s-.22.49-.24.79Z"/><path class="cls-9" d="m187.09,175.86l1.22,1.63.06.12.06-.12,1.22-1.63h.62l-1.58,2.09,1.58,2.06h-.62l-1.22-1.62-.06-.11-.06.11-1.22,1.62h-.62l1.58-2.06-1.58-2.09h.61Z"/><path class="cls-9" d="m192.99,179.85s-.11.05-.2.09c-.09.04-.2.08-.33.11-.13.03-.27.05-.42.05s-.3-.03-.44-.09c-.14-.06-.24-.15-.32-.27-.08-.12-.12-.27-.12-.45v-3h-.58v-.43h.58v-1.41h.54v1.41h.96v.43h-.96v2.85c.01.15.07.26.16.34.1.08.21.11.34.11.15,0,.29-.03.41-.08s.2-.09.22-.11l.14.44Z"/><path class="cls-9" d="m216.71,182.76s-.11.05-.2.09c-.09.04-.2.08-.33.11-.13.03-.27.05-.42.05s-.3-.03-.44-.09c-.14-.06-.24-.15-.32-.27-.08-.12-.12-.27-.12-.45v-3h-.58v-.43h.58v-1.41h.54v1.41h.96v.43h-.96v2.85c.01.15.07.26.16.34.1.08.21.11.34.11.15,0,.29-.03.41-.08s.2-.09.22-.11l.14.44Z"/><path class="cls-9" d="m219.11,183.01c-.3,0-.58-.06-.83-.17-.26-.11-.48-.27-.66-.47-.19-.2-.33-.43-.44-.69s-.16-.54-.16-.84c0-.39.09-.74.27-1.06.18-.32.43-.58.74-.77.31-.19.67-.29,1.07-.29s.77.1,1.08.29c.31.2.55.45.72.77.18.32.26.67.26,1.05v.12s0,.07,0,.09h-3.57c.03.3.11.56.25.79.14.23.33.41.55.55.23.14.47.2.74.2s.53-.07.77-.21.41-.32.51-.54l.47.13c-.08.2-.22.38-.39.54-.18.16-.38.28-.62.37-.24.09-.49.13-.76.13Zm-1.54-2.35h3.08c-.02-.3-.1-.56-.24-.79-.14-.23-.33-.41-.55-.53-.23-.13-.48-.19-.75-.19s-.52.06-.74.19c-.22.13-.41.31-.55.54s-.22.49-.24.79Z"/><path class="cls-9" d="m221.98,178.78l1.22,1.63.06.12.06-.12,1.22-1.63h.62l-1.58,2.09,1.58,2.06h-.62l-1.22-1.62-.06-.11-.06.11-1.22,1.62h-.62l1.58-2.06-1.58-2.09h.61Z"/><path class="cls-9" d="m227.88,182.76s-.11.05-.2.09c-.09.04-.2.08-.33.11-.13.03-.27.05-.42.05s-.3-.03-.44-.09c-.14-.06-.24-.15-.32-.27-.08-.12-.12-.27-.12-.45v-3h-.58v-.43h.58v-1.41h.54v1.41h.96v.43h-.96v2.85c.01.15.07.26.16.34.1.08.21.11.34.11.15,0,.29-.03.41-.08s.2-.09.22-.11l.14.44Z"/><path class="cls-9" d="m245.37,214.06s-.11.05-.2.09c-.09.04-.2.08-.33.11-.13.03-.27.05-.42.05s-.3-.03-.44-.09c-.14-.06-.24-.15-.32-.27-.08-.12-.12-.27-.12-.45v-3h-.58v-.43h.58v-1.41h.54v1.41h.96v.43h-.96v2.85c.01.15.07.26.16.34.1.08.21.11.34.11.15,0,.29-.03.41-.08s.2-.09.22-.11l.14.44Z"/><path class="cls-9" d="m247.78,214.31c-.3,0-.58-.06-.83-.17-.26-.11-.48-.27-.66-.47-.19-.2-.33-.43-.44-.69s-.16-.54-.16-.84c0-.39.09-.74.27-1.06.18-.32.43-.58.74-.77.31-.19.67-.29,1.07-.29s.77.1,1.08.29c.31.2.55.45.72.77.18.32.26.67.26,1.05v.12s0,.07,0,.09h-3.57c.03.3.11.56.25.79.14.23.33.41.55.55.23.14.47.2.74.2s.53-.07.77-.21.41-.32.51-.54l.47.13c-.08.2-.22.38-.39.54-.18.16-.38.28-.62.37-.24.09-.49.13-.76.13Zm-1.54-2.35h3.08c-.02-.3-.1-.56-.24-.79-.14-.23-.33-.41-.55-.53-.23-.13-.48-.19-.75-.19s-.52.06-.74.19c-.22.13-.41.31-.55.54s-.22.49-.24.79Z"/><path class="cls-9" d="m250.64,210.07l1.22,1.63.06.12.06-.12,1.22-1.63h.62l-1.58,2.09,1.58,2.06h-.62l-1.22-1.62-.06-.11-.06.11-1.22,1.62h-.62l1.58-2.06-1.58-2.09h.61Z"/><path class="cls-9" d="m256.55,214.06s-.11.05-.2.09c-.09.04-.2.08-.33.11-.13.03-.27.05-.42.05s-.3-.03-.44-.09c-.14-.06-.24-.15-.32-.27-.08-.12-.12-.27-.12-.45v-3h-.58v-.43h.58v-1.41h.54v1.41h.96v.43h-.96v2.85c.01.15.07.26.16.34.1.08.21.11.34.11.15,0,.29-.03.41-.08s.2-.09.22-.11l.14.44Z"/><path class="cls-9" d="m274.48,214.06s-.11.05-.2.09c-.09.04-.2.08-.33.11-.13.03-.27.05-.42.05s-.3-.03-.44-.09c-.14-.06-.24-.15-.32-.27-.08-.12-.12-.27-.12-.45v-3h-.58v-.43h.58v-1.41h.54v1.41h.96v.43h-.96v2.85c.01.15.07.26.16.34.1.08.21.11.34.11.15,0,.29-.03.41-.08s.2-.09.22-.11l.14.44Z"/><path class="cls-9" d="m276.89,214.31c-.3,0-.58-.06-.83-.17-.26-.11-.48-.27-.66-.47-.19-.2-.33-.43-.44-.69s-.16-.54-.16-.84c0-.39.09-.74.27-1.06.18-.32.43-.58.74-.77.31-.19.67-.29,1.07-.29s.77.1,1.08.29c.31.2.55.45.72.77.18.32.26.67.26,1.05v.12s0,.07,0,.09h-3.57c.03.3.11.56.25.79.14.23.33.41.55.55.23.14.47.2.74.2s.53-.07.77-.21.41-.32.51-.54l.47.13c-.08.2-.22.38-.39.54-.18.16-.38.28-.62.37-.24.09-.49.13-.76.13Zm-1.54-2.35h3.08c-.02-.3-.1-.56-.24-.79-.14-.23-.33-.41-.55-.53-.23-.13-.48-.19-.75-.19s-.52.06-.74.19c-.22.13-.41.31-.55.54s-.22.49-.24.79Z"/><path class="cls-9" d="m279.76,210.07l1.22,1.63.06.12.06-.12,1.22-1.63h.62l-1.58,2.09,1.58,2.06h-.62l-1.22-1.62-.06-.11-.06.11-1.22,1.62h-.62l1.58-2.06-1.58-2.09h.61Z"/><path class="cls-9" d="m285.66,214.06s-.11.05-.2.09c-.09.04-.2.08-.33.11-.13.03-.27.05-.42.05s-.3-.03-.44-.09c-.14-.06-.24-.15-.32-.27-.08-.12-.12-.27-.12-.45v-3h-.58v-.43h.58v-1.41h.54v1.41h.96v.43h-.96v2.85c.01.15.07.26.16.34.1.08.21.11.34.11.15,0,.29-.03.41-.08s.2-.09.22-.11l.14.44Z"/><path class="cls-9" d="m310.04,214.06s-.11.05-.2.09c-.09.04-.2.08-.33.11-.13.03-.27.05-.42.05s-.3-.03-.44-.09c-.14-.06-.24-.15-.32-.27-.08-.12-.12-.27-.12-.45v-3h-.58v-.43h.58v-1.41h.54v1.41h.96v.43h-.96v2.85c.01.15.07.26.16.34.1.08.21.11.34.11.15,0,.29-.03.41-.08s.2-.09.22-.11l.14.44Z"/><path class="cls-9" d="m312.45,214.31c-.3,0-.58-.06-.83-.17-.26-.11-.48-.27-.66-.47-.19-.2-.33-.43-.44-.69s-.16-.54-.16-.84c0-.39.09-.74.27-1.06.18-.32.43-.58.74-.77.31-.19.67-.29,1.07-.29s.77.1,1.08.29c.31.2.55.45.72.77.18.32.26.67.26,1.05v.12s0,.07,0,.09h-3.57c.03.3.11.56.25.79.14.23.33.41.55.55.23.14.47.2.74.2s.53-.07.77-.21.41-.32.51-.54l.47.13c-.08.2-.22.38-.39.54-.18.16-.38.28-.62.37-.24.09-.49.13-.76.13Zm-1.54-2.35h3.08c-.02-.3-.1-.56-.24-.79-.14-.23-.33-.41-.55-.53-.23-.13-.48-.19-.75-.19s-.52.06-.74.19c-.22.13-.41.31-.55.54s-.22.49-.24.79Z"/><path class="cls-9" d="m315.31,210.07l1.22,1.63.06.12.06-.12,1.22-1.63h.62l-1.58,2.09,1.58,2.06h-.62l-1.22-1.62-.06-.11-.06.11-1.22,1.62h-.62l1.58-2.06-1.58-2.09h.61Z"/><path class="cls-9" d="m321.22,214.06s-.11.05-.2.09c-.09.04-.2.08-.33.11-.13.03-.27.05-.42.05s-.3-.03-.44-.09c-.14-.06-.24-.15-.32-.27-.08-.12-.12-.27-.12-.45v-3h-.58v-.43h.58v-1.41h.54v1.41h.96v.43h-.96v2.85c.01.15.07.26.16.34.1.08.21.11.34.11.15,0,.29-.03.41-.08s.2-.09.22-.11l.14.44Z"/><path class="cls-9" d="m341.82,214.06s-.11.05-.2.09c-.09.04-.2.08-.33.11-.13.03-.27.05-.42.05s-.3-.03-.44-.09c-.14-.06-.24-.15-.32-.27-.08-.12-.12-.27-.12-.45v-3h-.58v-.43h.58v-1.41h.54v1.41h.96v.43h-.96v2.85c.01.15.07.26.16.34.1.08.21.11.34.11.15,0,.29-.03.41-.08s.2-.09.22-.11l.14.44Z"/><path class="cls-9" d="m344.22,214.31c-.3,0-.58-.06-.83-.17-.26-.11-.48-.27-.66-.47-.19-.2-.33-.43-.44-.69s-.16-.54-.16-.84c0-.39.09-.74.27-1.06.18-.32.43-.58.74-.77.31-.19.67-.29,1.07-.29s.77.1,1.08.29c.31.2.55.45.72.77.18.32.26.67.26,1.05v.12s0,.07,0,.09h-3.57c.03.3.11.56.25.79.14.23.33.41.55.55.23.14.47.2.74.2s.53-.07.77-.21.41-.32.51-.54l.47.13c-.08.2-.22.38-.39.54-.18.16-.38.28-.62.37-.24.09-.49.13-.76.13Zm-1.54-2.35h3.08c-.02-.3-.1-.56-.24-.79-.14-.23-.33-.41-.55-.53-.23-.13-.48-.19-.75-.19s-.52.06-.74.19c-.22.13-.41.31-.55.54s-.22.49-.24.79Z"/><path class="cls-9" d="m347.09,210.07l1.22,1.63.06.12.06-.12,1.22-1.63h.62l-1.58,2.09,1.58,2.06h-.62l-1.22-1.62-.06-.11-.06.11-1.22,1.62h-.62l1.58-2.06-1.58-2.09h.61Z"/><path class="cls-9" d="m352.99,214.06s-.11.05-.2.09c-.09.04-.2.08-.33.11-.13.03-.27.05-.42.05s-.3-.03-.44-.09c-.14-.06-.24-.15-.32-.27-.08-.12-.12-.27-.12-.45v-3h-.58v-.43h.58v-1.41h.54v1.41h.96v.43h-.96v2.85c.01.15.07.26.16.34.1.08.21.11.34.11.15,0,.29-.03.41-.08s.2-.09.22-.11l.14.44Z"/><path class="cls-9" d="m186.21,157.15h-.54v-2.31c0-.47-.08-.82-.25-1.05-.17-.24-.4-.35-.71-.35-.2,0-.4.05-.6.15-.2.1-.38.24-.53.42-.15.18-.26.38-.32.61v2.54h-.54v-5.84h.54v2.63c.17-.31.4-.55.69-.74s.61-.27.95-.27c.24,0,.44.04.61.13.17.08.3.21.41.37.1.16.18.35.23.56.05.21.07.46.07.73v2.43Z"/><path class="cls-9" d="m190.01,156.65v.5h-2.71v-.5h1.14v-3.42c-.04.06-.11.13-.22.21-.1.07-.22.14-.35.21s-.26.12-.39.16c-.13.04-.25.06-.35.06v-.53c.12,0,.26-.03.4-.1s.28-.15.42-.24.25-.18.34-.26c.09-.08.14-.13.15-.16h.56v4.07h1.02Z"/><path class="cls-9" d="m278.9,128.18h-.54v-2.31c0-.48-.08-.84-.23-1.06-.15-.23-.38-.34-.69-.34s-.6.11-.84.33c-.25.22-.42.51-.52.86v2.53h-.54v-2.31c0-.49-.07-.84-.22-1.07-.15-.23-.38-.34-.69-.34s-.59.11-.84.33c-.25.22-.43.5-.53.86v2.54h-.54v-4.15h.5v.95c.18-.32.4-.57.68-.75.27-.17.58-.26.92-.26s.63.1.84.29c.21.2.34.45.39.77.19-.35.42-.62.69-.8.27-.18.57-.27.92-.27.23,0,.43.04.6.13.16.08.29.21.39.36.1.16.17.34.22.56.05.22.07.47.07.74v2.43Z"/><path class="cls-9" d="m279.72,126.99c0-.26.07-.48.22-.67.15-.19.36-.33.62-.44.26-.1.57-.16.92-.16.2,0,.41.02.63.05.22.03.41.08.58.14v-.35c0-.35-.1-.63-.31-.83-.21-.21-.5-.31-.86-.31-.22,0-.44.04-.66.12-.22.08-.44.2-.68.36l-.21-.38c.27-.19.54-.33.8-.42.26-.09.53-.14.8-.14.51,0,.92.15,1.22.44s.45.69.45,1.21v1.92c0,.07.02.13.05.16.03.03.08.05.15.06v.43c-.06,0-.11.01-.15.02-.04,0-.07,0-.1,0-.13,0-.23-.05-.3-.13-.07-.08-.11-.17-.11-.26v-.3c-.19.24-.44.43-.74.56-.3.13-.6.2-.91.2-.27,0-.51-.06-.72-.17-.22-.11-.38-.27-.5-.46-.12-.19-.18-.41-.18-.64Zm2.79.32c.06-.07.1-.15.14-.21.03-.07.05-.13.05-.18v-.6c-.18-.07-.37-.12-.56-.16-.19-.04-.39-.06-.59-.06-.39,0-.7.08-.94.23-.24.15-.36.36-.36.63,0,.15.04.3.12.43.08.13.2.25.35.33s.34.13.54.13c.26,0,.51-.05.73-.15.23-.1.4-.23.52-.39Z"/><path class="cls-9" d="m284.41,123.14v-.8h.54v.8h-.54Zm0,5.04v-4.17h.54v4.17h-.54Z"/><path class="cls-9" d="m289.66,128.18h-.54v-2.31c0-.49-.07-.84-.22-1.07-.14-.23-.37-.34-.68-.34-.21,0-.42.05-.63.15-.21.1-.39.24-.55.42s-.27.38-.34.61v2.54h-.54v-4.15h.5v.95c.11-.2.26-.38.44-.53.18-.15.39-.27.62-.35.23-.08.47-.13.71-.13.23,0,.42.04.58.13.16.08.29.21.38.36.1.16.17.34.21.56.04.22.06.47.06.74v2.43Z"/><path class="cls-9" d="m275.44,92.21c-.33,0-.63-.08-.9-.25s-.49-.38-.65-.64v.81h-.49v-5.84h.54v2.57c.19-.28.41-.51.67-.68s.57-.26.91-.26c.29,0,.56.06.79.18.23.12.43.29.6.49.17.2.29.44.38.69.09.26.13.52.13.79,0,.29-.05.56-.15.82-.1.25-.24.48-.42.68-.18.2-.39.36-.63.47-.24.11-.5.17-.78.17Zm-.13-.48c.22,0,.43-.04.62-.14.19-.09.36-.21.5-.37s.25-.34.32-.54c.07-.2.11-.4.11-.62,0-.29-.06-.57-.19-.82-.13-.26-.3-.46-.52-.62s-.48-.23-.78-.23c-.21,0-.41.05-.6.14-.18.1-.35.22-.49.38-.14.16-.26.33-.35.51v1.29c.02.14.08.28.17.4s.2.23.34.32c.14.09.28.16.43.21.15.05.29.08.43.08Z"/><path class="cls-9" d="m280.12,92.21c-.3,0-.57-.06-.83-.17-.25-.11-.47-.27-.66-.47-.18-.2-.33-.43-.43-.68-.1-.26-.15-.53-.15-.82s.05-.57.15-.83c.1-.26.25-.48.43-.68.19-.2.41-.35.66-.47.25-.11.53-.17.83-.17s.57.06.82.17c.25.11.47.27.66.47.19.2.33.43.43.68.1.26.15.53.15.83s-.05.56-.15.82c-.1.26-.24.49-.43.68-.18.2-.4.36-.66.47-.25.11-.53.17-.84.17Zm-1.51-2.13c0,.31.07.59.2.84.14.25.32.45.55.6.23.15.48.22.76.22s.53-.07.76-.22c.23-.15.41-.35.55-.61s.21-.54.21-.84-.07-.59-.21-.84c-.14-.25-.32-.46-.55-.6-.23-.15-.48-.22-.76-.22s-.53.08-.76.23c-.23.15-.41.36-.55.61s-.21.53-.21.85Z"/><path class="cls-9" d="m282.82,90.07c0-.39.08-.75.24-1.08.16-.33.39-.59.68-.78.29-.2.62-.29.98-.29.35,0,.66.09.93.28.27.18.49.41.64.67v-2.57h.54v5.18c0,.07.02.13.05.16.03.04.08.06.14.06v.43c-.11.02-.19.02-.25.02-.11,0-.21-.05-.3-.14-.09-.08-.13-.18-.13-.28v-.41c-.17.27-.39.49-.67.65-.28.16-.58.24-.88.24-.29,0-.55-.06-.8-.18-.24-.12-.45-.28-.63-.48s-.32-.43-.42-.69c-.1-.26-.15-.52-.15-.8Zm3.48.64v-1.28c-.07-.19-.18-.36-.34-.52s-.33-.28-.52-.37c-.19-.09-.39-.14-.58-.14-.22,0-.43.05-.61.14-.18.09-.34.22-.47.38-.13.16-.23.34-.3.54-.07.2-.1.41-.1.62,0,.22.04.43.12.64.08.2.19.38.33.54s.31.28.5.36c.19.08.39.13.61.13.14,0,.28-.03.43-.08.15-.05.29-.13.43-.22s.25-.2.34-.33.15-.26.17-.4Z"/><path class="cls-9" d="m288.32,93.41c.07,0,.15,0,.22.01.07,0,.12,0,.15-.01.06-.01.12-.05.18-.11.06-.06.13-.19.21-.37s.19-.45.34-.8l-1.82-4.16h.58l1.53,3.6,1.41-3.6h.54l-2.16,5.36c-.04.1-.09.2-.17.28s-.17.16-.28.21c-.11.05-.24.08-.4.08-.05,0-.1,0-.15,0-.05,0-.11,0-.18-.02v-.49Z"/><path class="cls-9" d="m332.05,128.18v-3.74h-.58v-.43h.58v-.11c0-.34.05-.63.15-.88.1-.25.24-.43.42-.56.18-.13.4-.2.65-.2.17,0,.33.02.48.07.15.05.29.11.4.19l-.17.39c-.07-.06-.16-.1-.27-.14-.11-.03-.22-.05-.34-.05-.25,0-.44.1-.58.3-.14.2-.2.48-.2.86v.13h1.15v.43h-1.15v3.74h-.54Z"/><path class="cls-9" d="m336.14,128.26c-.3,0-.57-.06-.83-.17-.25-.11-.47-.27-.66-.47-.18-.2-.33-.43-.43-.68-.1-.26-.15-.53-.15-.82s.05-.57.15-.83c.1-.26.25-.48.43-.68.19-.2.41-.35.66-.47.25-.11.53-.17.83-.17s.57.06.82.17c.25.11.47.27.66.47.19.2.33.43.43.68.1.26.15.53.15.83s-.05.56-.15.82c-.1.26-.24.49-.43.68-.18.2-.4.36-.66.47-.25.11-.53.17-.84.17Zm-1.51-2.13c0,.31.07.59.2.84.14.25.32.45.55.6.23.15.48.22.76.22s.53-.07.76-.22c.23-.15.41-.35.55-.61s.21-.54.21-.84-.07-.59-.21-.84c-.14-.25-.32-.46-.55-.6-.23-.15-.48-.22-.76-.22s-.53.08-.76.23c-.23.15-.41.36-.55.61s-.21.53-.21.85Z"/><path class="cls-9" d="m340.9,128.26c-.3,0-.57-.06-.83-.17-.25-.11-.47-.27-.66-.47-.18-.2-.33-.43-.43-.68-.1-.26-.15-.53-.15-.82s.05-.57.15-.83c.1-.26.25-.48.43-.68.19-.2.41-.35.66-.47.25-.11.53-.17.83-.17s.57.06.82.17c.25.11.47.27.66.47.19.2.33.43.43.68.1.26.15.53.15.83s-.05.56-.15.82c-.1.26-.24.49-.43.68-.18.2-.4.36-.66.47-.25.11-.53.17-.84.17Zm-1.51-2.13c0,.31.07.59.2.84.14.25.32.45.55.6.23.15.48.22.76.22s.53-.07.76-.22c.23-.15.41-.35.55-.61s.21-.54.21-.84-.07-.59-.21-.84c-.14-.25-.32-.46-.55-.6-.23-.15-.48-.22-.76-.22s-.53.08-.76.23c-.23.15-.41.36-.55.61s-.21.53-.21.85Z"/><path class="cls-9" d="m345.82,128.01s-.11.05-.2.09c-.09.04-.2.08-.33.11-.13.03-.27.05-.42.05s-.3-.03-.44-.09c-.14-.06-.24-.15-.32-.27-.08-.12-.12-.27-.12-.45v-3h-.58v-.43h.58v-1.41h.54v1.41h.96v.43h-.96v2.85c.01.15.07.26.16.34.1.08.21.11.34.11.15,0,.29-.03.41-.08s.2-.09.22-.11l.14.44Z"/><path class="cls-9" d="m348.23,128.26c-.3,0-.58-.06-.83-.17-.26-.11-.48-.27-.66-.47-.19-.2-.33-.43-.44-.69s-.16-.54-.16-.84c0-.39.09-.74.27-1.06.18-.32.43-.58.74-.77.31-.19.67-.29,1.07-.29s.77.1,1.08.29c.31.2.55.45.72.77.18.32.26.67.26,1.05v.12s0,.07,0,.09h-3.57c.03.3.11.56.25.79.14.23.33.41.55.55.23.14.47.2.74.2s.53-.07.77-.21.41-.32.51-.54l.47.13c-.08.2-.22.38-.39.54-.18.16-.38.28-.62.37-.24.09-.49.13-.76.13Zm-1.54-2.35h3.08c-.02-.3-.1-.56-.24-.79-.14-.23-.33-.41-.55-.53-.23-.13-.48-.19-.75-.19s-.52.06-.74.19c-.22.13-.41.31-.55.54s-.22.49-.24.79Z"/><path class="cls-9" d="m353.2,124.49c-.36.01-.68.11-.96.3-.27.19-.47.46-.58.79v2.59h-.54v-4.15h.51v.98c.14-.29.33-.53.57-.71s.49-.28.76-.3c.05,0,.1,0,.14,0s.07,0,.1,0v.5Z"/><path class="cls-9" d="m253.94,155.96c0-.26.07-.48.22-.67.15-.19.36-.33.62-.44.26-.1.57-.16.92-.16.2,0,.41.02.63.05s.41.08.58.14v-.35c0-.35-.1-.63-.31-.83-.21-.21-.5-.31-.86-.31-.22,0-.44.04-.66.12-.22.08-.44.2-.68.36l-.21-.38c.27-.19.54-.33.8-.42.26-.09.53-.14.8-.14.51,0,.92.15,1.22.44.3.29.45.69.45,1.21v1.92c0,.07.02.13.05.16.03.03.08.05.15.06v.43c-.06,0-.11.01-.15.02-.04,0-.07,0-.1,0-.13,0-.23-.05-.3-.13s-.11-.17-.11-.26v-.3c-.19.24-.44.42-.74.56s-.6.2-.91.2c-.27,0-.51-.06-.72-.17-.22-.11-.38-.27-.5-.46-.12-.19-.18-.41-.18-.64Zm2.79.32c.06-.07.1-.15.14-.21.03-.07.05-.13.05-.18v-.6c-.18-.07-.37-.12-.56-.16-.19-.04-.39-.06-.59-.06-.39,0-.7.08-.94.23-.24.15-.36.36-.36.63,0,.15.04.3.12.43.08.13.2.25.35.33s.34.13.54.13c.26,0,.51-.05.73-.15.23-.1.4-.23.52-.39Z"/><path class="cls-9" d="m260.72,153.46c-.36.01-.68.11-.96.3-.27.19-.47.46-.58.79v2.59h-.54v-4.15h.51v.98c.14-.29.33-.53.57-.71s.49-.28.76-.3c.05,0,.1,0,.14,0s.07,0,.1,0v.5Z"/><path class="cls-9" d="m263.45,156.98s-.11.04-.2.09-.2.08-.33.11c-.13.03-.27.05-.42.05s-.3-.03-.44-.09c-.14-.06-.24-.15-.32-.27-.08-.12-.12-.27-.12-.45v-3h-.58v-.43h.58v-1.41h.54v1.41h.96v.43h-.96v2.85c.01.15.07.26.16.34.1.07.21.11.34.11.15,0,.29-.03.41-.08s.2-.09.22-.11l.14.44Z"/><path class="cls-9" d="m264.13,152.11v-.8h.54v.8h-.54Zm0,5.04v-4.17h.54v4.17h-.54Z"/><path class="cls-9" d="m267.68,157.23c-.3,0-.58-.06-.84-.17-.25-.11-.47-.27-.66-.47-.19-.2-.34-.43-.44-.69s-.16-.54-.16-.83c0-.39.09-.75.26-1.07.18-.32.42-.58.74-.77.31-.19.68-.29,1.09-.29.39,0,.73.09,1.03.27.3.18.52.42.66.72l-.53.17c-.12-.21-.28-.38-.49-.5-.21-.12-.44-.18-.7-.18-.28,0-.53.07-.76.21-.23.14-.41.34-.55.59-.14.25-.2.53-.2.85s.07.6.21.85c.14.25.32.46.55.61.23.15.48.23.76.23.18,0,.36-.03.52-.1.17-.06.31-.15.44-.26.12-.11.21-.23.25-.36l.54.16c-.08.2-.2.38-.37.53-.17.16-.38.28-.61.37-.23.09-.48.13-.75.13Z"/><path class="cls-9" d="m270.29,151.31h.54v4.92c0,.21.04.35.11.41s.17.1.27.1c.1,0,.19-.01.29-.03.1-.02.18-.04.25-.06l.1.44c-.1.04-.23.08-.37.1-.15.03-.27.04-.38.04-.25,0-.44-.07-.59-.22-.15-.15-.22-.34-.22-.6v-5.11Z"/><path class="cls-9" d="m274.24,157.23c-.3,0-.58-.06-.83-.17-.26-.11-.48-.27-.66-.47-.19-.2-.33-.43-.44-.69s-.16-.54-.16-.84c0-.39.09-.74.27-1.06.18-.32.43-.58.74-.77.31-.19.67-.29,1.07-.29s.77.1,1.08.29.55.45.72.77c.18.32.26.67.26,1.05v.12s0,.07,0,.09h-3.57c.03.3.11.56.25.79.14.23.33.41.55.55.23.14.47.2.74.2s.53-.07.77-.21.41-.32.51-.54l.47.13c-.08.2-.22.38-.39.54-.18.16-.38.28-.62.37s-.49.13-.76.13Zm-1.54-2.35h3.08c-.02-.3-.1-.56-.24-.79-.14-.23-.33-.41-.55-.53-.23-.13-.48-.19-.75-.19s-.52.06-.74.19c-.22.13-.41.31-.55.54s-.22.49-.24.79Z"/><path class="cls-9" d="m310.3,155.96c0-.26.07-.48.22-.67.15-.19.36-.33.62-.44.26-.1.57-.16.92-.16.2,0,.41.02.63.05s.41.08.58.14v-.35c0-.35-.1-.63-.31-.83-.21-.21-.5-.31-.86-.31-.22,0-.44.04-.66.12-.22.08-.44.2-.68.36l-.21-.38c.27-.19.54-.33.8-.42.26-.09.53-.14.8-.14.51,0,.92.15,1.22.44.3.29.45.69.45,1.21v1.92c0,.07.02.13.05.16.03.03.08.05.15.06v.43c-.06,0-.11.01-.15.02-.04,0-.07,0-.1,0-.13,0-.23-.05-.3-.13s-.11-.17-.11-.26v-.3c-.19.24-.44.42-.74.56s-.6.2-.91.2c-.27,0-.51-.06-.72-.17-.22-.11-.38-.27-.5-.46-.12-.19-.18-.41-.18-.64Zm2.79.32c.06-.07.1-.15.14-.21.03-.07.05-.13.05-.18v-.6c-.18-.07-.37-.12-.56-.16-.19-.04-.39-.06-.59-.06-.39,0-.7.08-.94.23-.24.15-.36.36-.36.63,0,.15.04.3.12.43.08.13.2.25.35.33s.34.13.54.13c.26,0,.51-.05.73-.15.23-.1.4-.23.52-.39Z"/><path class="cls-9" d="m317.07,153.46c-.36.01-.68.11-.96.3-.27.19-.47.46-.58.79v2.59h-.54v-4.15h.51v.98c.14-.29.33-.53.57-.71s.49-.28.76-.3c.05,0,.1,0,.14,0s.07,0,.1,0v.5Z"/><path class="cls-9" d="m319.8,156.98s-.11.04-.2.09-.2.08-.33.11c-.13.03-.27.05-.42.05s-.3-.03-.44-.09c-.14-.06-.24-.15-.32-.27-.08-.12-.12-.27-.12-.45v-3h-.58v-.43h.58v-1.41h.54v1.41h.96v.43h-.96v2.85c.01.15.07.26.16.34.1.07.21.11.34.11.15,0,.29-.03.41-.08s.2-.09.22-.11l.14.44Z"/><path class="cls-9" d="m320.48,152.11v-.8h.54v.8h-.54Zm0,5.04v-4.17h.54v4.17h-.54Z"/><path class="cls-9" d="m324.03,157.23c-.3,0-.58-.06-.84-.17-.25-.11-.47-.27-.66-.47-.19-.2-.34-.43-.44-.69s-.16-.54-.16-.83c0-.39.09-.75.26-1.07.18-.32.42-.58.74-.77.31-.19.68-.29,1.09-.29.39,0,.73.09,1.03.27.3.18.52.42.66.72l-.53.17c-.12-.21-.28-.38-.49-.5-.21-.12-.44-.18-.7-.18-.28,0-.53.07-.76.21-.23.14-.41.34-.55.59-.14.25-.2.53-.2.85s.07.6.21.85c.14.25.32.46.55.61.23.15.48.23.76.23.18,0,.36-.03.52-.1.17-.06.31-.15.44-.26.12-.11.21-.23.25-.36l.54.16c-.08.2-.2.38-.37.53-.17.16-.38.28-.61.37-.23.09-.48.13-.75.13Z"/><path class="cls-9" d="m326.64,151.31h.54v4.92c0,.21.04.35.11.41s.17.1.27.1c.1,0,.19-.01.29-.03.1-.02.18-.04.25-.06l.1.44c-.1.04-.23.08-.37.1-.15.03-.27.04-.38.04-.25,0-.44-.07-.59-.22-.15-.15-.22-.34-.22-.6v-5.11Z"/><path class="cls-9" d="m330.59,157.23c-.3,0-.58-.06-.83-.17-.26-.11-.48-.27-.66-.47-.19-.2-.33-.43-.44-.69s-.16-.54-.16-.84c0-.39.09-.74.27-1.06.18-.32.43-.58.74-.77.31-.19.67-.29,1.07-.29s.77.1,1.08.29.55.45.72.77c.18.32.26.67.26,1.05v.12s0,.07,0,.09h-3.57c.03.3.11.56.25.79.14.23.33.41.55.55.23.14.47.2.74.2s.53-.07.77-.21.41-.32.51-.54l.47.13c-.08.2-.22.38-.39.54-.18.16-.38.28-.62.37s-.49.13-.76.13Zm-1.54-2.35h3.08c-.02-.3-.1-.56-.24-.79-.14-.23-.33-.41-.55-.53-.23-.13-.48-.19-.75-.19s-.52.06-.74.19c-.22.13-.41.31-.55.54s-.22.49-.24.79Z"/><path class="cls-9" d="m249.96,187.39c-.35,0-.66-.09-.93-.27-.27-.18-.49-.4-.65-.67v2.56h-.54v-5.86h.49v.81c.17-.26.39-.47.66-.63.28-.16.57-.24.89-.24.29,0,.55.06.79.18.24.12.45.28.62.48.18.2.31.43.41.69.1.26.15.52.15.8,0,.39-.08.74-.24,1.07s-.38.59-.66.78c-.28.2-.61.29-.99.29Zm-.15-.48c.23,0,.43-.05.62-.14s.34-.22.47-.38c.13-.16.23-.34.3-.54s.1-.4.1-.62-.04-.43-.12-.63c-.08-.2-.19-.38-.33-.53-.14-.15-.31-.28-.5-.37-.19-.09-.39-.14-.61-.14-.14,0-.28.03-.43.08-.15.05-.29.13-.43.23-.14.1-.25.21-.34.33-.09.12-.15.25-.17.39v1.27c.09.2.2.37.34.53.14.16.31.28.5.37.19.09.39.14.59.14Z"/><path class="cls-9" d="m279.07,187.39c-.35,0-.66-.09-.93-.27-.27-.18-.49-.4-.65-.67v2.56h-.54v-5.86h.49v.81c.17-.26.39-.47.66-.63.28-.16.57-.24.89-.24.29,0,.55.06.79.18.24.12.45.28.62.48.18.2.31.43.41.69.1.26.15.52.15.8,0,.39-.08.74-.24,1.07s-.38.59-.66.78c-.28.2-.61.29-.99.29Zm-.15-.48c.23,0,.43-.05.62-.14s.34-.22.47-.38c.13-.16.23-.34.3-.54s.1-.4.1-.62-.04-.43-.12-.63c-.08-.2-.19-.38-.33-.53-.14-.15-.31-.28-.5-.37-.19-.09-.39-.14-.61-.14-.14,0-.28.03-.43.08-.15.05-.29.13-.43.23-.14.1-.25.21-.34.33-.09.12-.15.25-.17.39v1.27c.09.2.2.37.34.53.14.16.31.28.5.37.19.09.39.14.59.14Z"/><path class="cls-9" d="m314.63,187.39c-.35,0-.66-.09-.93-.27-.27-.18-.49-.4-.65-.67v2.56h-.54v-5.86h.49v.81c.17-.26.39-.47.66-.63.28-.16.57-.24.89-.24.29,0,.55.06.79.18.24.12.45.28.62.48.18.2.31.43.41.69.1.26.15.52.15.8,0,.39-.08.74-.24,1.07s-.38.59-.66.78c-.28.2-.61.29-.99.29Zm-.15-.48c.23,0,.43-.05.62-.14s.34-.22.47-.38c.13-.16.23-.34.3-.54s.1-.4.1-.62-.04-.43-.12-.63c-.08-.2-.19-.38-.33-.53-.14-.15-.31-.28-.5-.37-.19-.09-.39-.14-.61-.14-.14,0-.28.03-.43.08-.15.05-.29.13-.43.23-.14.1-.25.21-.34.33-.09.12-.15.25-.17.39v1.27c.09.2.2.37.34.53.14.16.31.28.5.37.19.09.39.14.59.14Z"/><path class="cls-9" d="m346.41,187.39c-.35,0-.66-.09-.93-.27-.27-.18-.49-.4-.65-.67v2.56h-.54v-5.86h.49v.81c.17-.26.39-.47.66-.63.28-.16.57-.24.89-.24.29,0,.55.06.79.18.24.12.45.28.62.48.18.2.31.43.41.69.1.26.15.52.15.8,0,.39-.08.74-.24,1.07s-.38.59-.66.78c-.28.2-.61.29-.99.29Zm-.15-.48c.23,0,.43-.05.62-.14s.34-.22.47-.38c.13-.16.23-.34.3-.54s.1-.4.1-.62-.04-.43-.12-.63c-.08-.2-.19-.38-.33-.53-.14-.15-.31-.28-.5-.37-.19-.09-.39-.14-.61-.14-.14,0-.28.03-.43.08-.15.05-.29.13-.43.23-.14.1-.25.21-.34.33-.09.12-.15.25-.17.39v1.27c.09.2.2.37.34.53.14.16.31.28.5.37.19.09.39.14.59.14Z"/><path class="cls-9" d="m221.29,157.23c-.35,0-.66-.09-.93-.27-.27-.18-.49-.4-.65-.67v2.56h-.54v-5.86h.49v.81c.17-.26.39-.47.66-.63.28-.16.57-.24.89-.24.29,0,.55.06.79.18.24.12.45.28.62.48.18.2.31.43.41.69.1.26.15.52.15.8,0,.39-.08.74-.24,1.07s-.38.59-.66.78c-.28.2-.61.29-.99.29Zm-.15-.48c.23,0,.43-.05.62-.14s.34-.22.47-.38c.13-.16.23-.34.3-.54s.1-.4.1-.62-.04-.43-.12-.63c-.08-.2-.19-.38-.33-.53-.14-.15-.31-.28-.5-.37-.19-.09-.39-.14-.61-.14-.14,0-.28.03-.43.08-.15.05-.29.13-.43.23-.14.1-.25.21-.34.33-.09.12-.15.25-.17.39v1.27c.09.2.2.37.34.53.14.16.31.28.5.37.19.09.39.14.59.14Z"/><line class="cls-3" x1="342.2" y1="135.76" x2="366.61" y2="148.26"/></svg>